<?xml version="1.0" encoding="UTF-8" standalone="no"?>
<!-- Created with Inkscape (http://www.inkscape.org/) -->

<svg
   version="1.1"
   id="svg2"
   width="560"
   height="420"
   viewBox="0 0 560 420"
   sodipodi:docname="avg_PBNJ_FER.eps"
   xmlns:inkscape="http://www.inkscape.org/namespaces/inkscape"
   xmlns:sodipodi="http://sodipodi.sourceforge.net/DTD/sodipodi-0.dtd"
   xmlns="http://www.w3.org/2000/svg"
   xmlns:svg="http://www.w3.org/2000/svg">
  <defs
     id="defs6" />
  <sodipodi:namedview
     id="namedview4"
     pagecolor="#ffffff"
     bordercolor="#000000"
     borderopacity="0.25"
     inkscape:showpageshadow="2"
     inkscape:pageopacity="0.0"
     inkscape:pagecheckerboard="0"
     inkscape:deskcolor="#d1d1d1" />
  <g
     id="g8"
     inkscape:groupmode="layer"
     inkscape:label="ink_ext_XXXXXX"
     transform="matrix(1.3333333,0,0,-1.3333333,0,420)">
    <g
       id="g10"
       transform="scale(0.1)">
      <path
         d="M 0,0 H 4200 V 3150 H 0 Z"
         style="fill:#ffffff;fill-opacity:1;fill-rule:nonzero;stroke:none"
         id="path12" />
      <path
         d="M 0,0 H 4200 V 3150 H 0 Z"
         style="fill:#ffffff;fill-opacity:1;fill-rule:nonzero;stroke:none"
         id="path14" />
      <path
         d="m 547.5,345 h 3255 v 2572.5 h -3255 z"
         style="fill:#ffffff;fill-opacity:1;fill-rule:nonzero;stroke:none"
         id="path16" />
      <path
         d="M 547.5,345 V 2917.5"
         style="fill:none;stroke:#dfdfdf;stroke-width:5.0025;stroke-linecap:butt;stroke-linejoin:round;stroke-miterlimit:10;stroke-dasharray:none;stroke-opacity:1"
         id="path18" />
      <path
         d="M 1198.5,345 V 2917.5"
         style="fill:none;stroke:#dfdfdf;stroke-width:5.0025;stroke-linecap:butt;stroke-linejoin:round;stroke-miterlimit:10;stroke-dasharray:none;stroke-opacity:1"
         id="path20" />
      <path
         d="M 1849.5,345 V 2917.5"
         style="fill:none;stroke:#dfdfdf;stroke-width:5.0025;stroke-linecap:butt;stroke-linejoin:round;stroke-miterlimit:10;stroke-dasharray:none;stroke-opacity:1"
         id="path22" />
      <path
         d="M 2500.5,345 V 2917.5"
         style="fill:none;stroke:#dfdfdf;stroke-width:5.0025;stroke-linecap:butt;stroke-linejoin:round;stroke-miterlimit:10;stroke-dasharray:none;stroke-opacity:1"
         id="path24" />
      <path
         d="M 3151.5,345 V 2917.5"
         style="fill:none;stroke:#dfdfdf;stroke-width:5.0025;stroke-linecap:butt;stroke-linejoin:round;stroke-miterlimit:10;stroke-dasharray:none;stroke-opacity:1"
         id="path26" />
      <path
         d="M 3802.5,345 V 2917.5"
         style="fill:none;stroke:#dfdfdf;stroke-width:5.0025;stroke-linecap:butt;stroke-linejoin:round;stroke-miterlimit:10;stroke-dasharray:none;stroke-opacity:1"
         id="path28" />
      <path
         d="M 3802.5,345 H 547.5"
         style="fill:none;stroke:#dfdfdf;stroke-width:5.0025;stroke-linecap:butt;stroke-linejoin:round;stroke-miterlimit:10;stroke-dasharray:none;stroke-opacity:1"
         id="path30" />
      <path
         d="M 3802.5,602.25 H 547.5"
         style="fill:none;stroke:#dfdfdf;stroke-width:5.0025;stroke-linecap:butt;stroke-linejoin:round;stroke-miterlimit:10;stroke-dasharray:none;stroke-opacity:1"
         id="path32" />
      <path
         d="M 3802.5,859.5 H 547.5"
         style="fill:none;stroke:#dfdfdf;stroke-width:5.0025;stroke-linecap:butt;stroke-linejoin:round;stroke-miterlimit:10;stroke-dasharray:none;stroke-opacity:1"
         id="path34" />
      <path
         d="M 3802.5,1116.75 H 547.5"
         style="fill:none;stroke:#dfdfdf;stroke-width:5.0025;stroke-linecap:butt;stroke-linejoin:round;stroke-miterlimit:10;stroke-dasharray:none;stroke-opacity:1"
         id="path36" />
      <path
         d="M 3802.5,1374 H 547.5"
         style="fill:none;stroke:#dfdfdf;stroke-width:5.0025;stroke-linecap:butt;stroke-linejoin:round;stroke-miterlimit:10;stroke-dasharray:none;stroke-opacity:1"
         id="path38" />
      <path
         d="M 3802.5,1631.25 H 547.5"
         style="fill:none;stroke:#dfdfdf;stroke-width:5.0025;stroke-linecap:butt;stroke-linejoin:round;stroke-miterlimit:10;stroke-dasharray:none;stroke-opacity:1"
         id="path40" />
      <path
         d="M 3802.5,1888.5 H 547.5"
         style="fill:none;stroke:#dfdfdf;stroke-width:5.0025;stroke-linecap:butt;stroke-linejoin:round;stroke-miterlimit:10;stroke-dasharray:none;stroke-opacity:1"
         id="path42" />
      <path
         d="M 3802.5,2145.75 H 547.5"
         style="fill:none;stroke:#dfdfdf;stroke-width:5.0025;stroke-linecap:butt;stroke-linejoin:round;stroke-miterlimit:10;stroke-dasharray:none;stroke-opacity:1"
         id="path44" />
      <path
         d="M 3802.5,2403 H 547.5"
         style="fill:none;stroke:#dfdfdf;stroke-width:5.0025;stroke-linecap:butt;stroke-linejoin:round;stroke-miterlimit:10;stroke-dasharray:none;stroke-opacity:1"
         id="path46" />
      <path
         d="M 3802.5,2660.25 H 547.5"
         style="fill:none;stroke:#dfdfdf;stroke-width:5.0025;stroke-linecap:butt;stroke-linejoin:round;stroke-miterlimit:10;stroke-dasharray:none;stroke-opacity:1"
         id="path48" />
      <path
         d="M 3802.5,2917.5 H 547.5"
         style="fill:none;stroke:#dfdfdf;stroke-width:5.0025;stroke-linecap:butt;stroke-linejoin:round;stroke-miterlimit:10;stroke-dasharray:none;stroke-opacity:1"
         id="path50" />
      <path
         d="m 547.5,345 h 3255"
         style="fill:none;stroke:#262626;stroke-width:5.0025;stroke-linecap:square;stroke-linejoin:round;stroke-miterlimit:10;stroke-dasharray:none;stroke-opacity:1"
         id="path52" />
      <path
         d="m 547.5,345 v 32.551"
         style="fill:none;stroke:#262626;stroke-width:5.0025;stroke-linecap:square;stroke-linejoin:round;stroke-miterlimit:10;stroke-dasharray:none;stroke-opacity:1"
         id="path54" />
      <path
         d="m 1198.5,345 v 32.551"
         style="fill:none;stroke:#262626;stroke-width:5.0025;stroke-linecap:square;stroke-linejoin:round;stroke-miterlimit:10;stroke-dasharray:none;stroke-opacity:1"
         id="path56" />
      <path
         d="m 1849.5,345 v 32.551"
         style="fill:none;stroke:#262626;stroke-width:5.0025;stroke-linecap:square;stroke-linejoin:round;stroke-miterlimit:10;stroke-dasharray:none;stroke-opacity:1"
         id="path58" />
      <path
         d="m 2500.5,345 v 32.551"
         style="fill:none;stroke:#262626;stroke-width:5.0025;stroke-linecap:square;stroke-linejoin:round;stroke-miterlimit:10;stroke-dasharray:none;stroke-opacity:1"
         id="path60" />
      <path
         d="m 3151.5,345 v 32.551"
         style="fill:none;stroke:#262626;stroke-width:5.0025;stroke-linecap:square;stroke-linejoin:round;stroke-miterlimit:10;stroke-dasharray:none;stroke-opacity:1"
         id="path62" />
      <path
         d="m 3802.5,345 v 32.551"
         style="fill:none;stroke:#262626;stroke-width:5.0025;stroke-linecap:square;stroke-linejoin:round;stroke-miterlimit:10;stroke-dasharray:none;stroke-opacity:1"
         id="path64" />
      <g
         id="g66"
         transform="scale(10)">
        <text
           xml:space="preserve"
           transform="matrix(1,0,0,-1,51.375,20.75)"
           style="font-variant:normal;font-weight:normal;font-size:9.99975px;font-family:Helvetica;-inkscape-font-specification:Helvetica;writing-mode:lr-tb;fill:#262626;fill-opacity:1;fill-rule:nonzero;stroke:none"
           id="text70"><tspan
             x="0 60.224995 65.784859 68.564789 125.32497 130.88483 133.66476 190.42494 195.9848 198.76472 255.52492 261.08478 263.86472 325.49985"
             y="0"
             sodipodi:role="line"
             id="tspan68">00.20.40.60.81</tspan></text>
      </g>
      <path
         d="m 2148.16,38.9023 c 0,0.3946 0.05,0.6719 0.13,0.8243 l 11.12,44.8828 c 1.02,4.0625 2.84,8.0273 5.45,11.8945 2.62,3.8671 5.75,7.0351 9.37,9.4921 3.64,2.461 7.49,3.692 11.56,3.692 3.28,0 6.12,-0.84 8.55,-2.52 2.42,-1.68 4.26,-3.906 5.51,-6.684 1.25,-2.7692 1.87,-5.7926 1.87,-9.0738 0,-3.6758 -0.74,-7.4454 -2.22,-11.3086 -1.49,-3.8711 -3.54,-7.4258 -6.16,-10.668 -2.62,-3.2422 -5.63,-5.8398 -9.02,-7.793 -3.4,-1.9531 -6.97,-2.9297 -10.72,-2.9297 -2.19,0 -4.26,0.6641 -6.22,1.9922 -1.95,1.3282 -3.47,3.043 -4.57,5.1563 l -6.68,-26.6055 c -0.23,-1.0156 -0.77,-1.8555 -1.63,-2.5195 -0.86,-0.6602 -1.84,-0.9883 -2.94,-0.9883 -0.93,0 -1.73,0.2695 -2.4,0.8164 -0.66,0.5469 -1,1.3242 -1,2.3398 z m 25.67,22.8516 c 3.99,0 7.44,2.0352 10.37,6.0977 2.93,4.0625 5.18,8.8476 6.74,14.3554 1.56,5.5118 2.35,10.1797 2.35,14.0039 0,2.8125 -0.63,5.2771 -1.88,7.3871 -1.25,2.105 -3.2,3.156 -5.86,3.156 -3.21,0 -6.05,-1.231 -8.55,-3.688 -2.5,-2.461 -4.5,-5.3512 -5.98,-8.6715 -1.49,-3.3203 -2.74,-6.8164 -3.75,-10.4843 l -3.05,-12.5391 c 0.47,-2.7344 1.54,-5.0195 3.22,-6.8555 1.68,-1.8398 3.81,-2.7617 6.39,-2.7617"
         style="fill:#262626;fill-opacity:1;fill-rule:nonzero;stroke:none"
         id="path72" />
      <path
         d="M 547.5,345 V 2917.5"
         style="fill:none;stroke:#262626;stroke-width:5.0025;stroke-linecap:square;stroke-linejoin:round;stroke-miterlimit:10;stroke-dasharray:none;stroke-opacity:1"
         id="path74" />
      <path
         d="m 547.5,345 h 32.551"
         style="fill:none;stroke:#262626;stroke-width:5.0025;stroke-linecap:square;stroke-linejoin:round;stroke-miterlimit:10;stroke-dasharray:none;stroke-opacity:1"
         id="path76" />
      <path
         d="m 547.5,602.25 h 32.551"
         style="fill:none;stroke:#262626;stroke-width:5.0025;stroke-linecap:square;stroke-linejoin:round;stroke-miterlimit:10;stroke-dasharray:none;stroke-opacity:1"
         id="path78" />
      <path
         d="m 547.5,859.5 h 32.551"
         style="fill:none;stroke:#262626;stroke-width:5.0025;stroke-linecap:square;stroke-linejoin:round;stroke-miterlimit:10;stroke-dasharray:none;stroke-opacity:1"
         id="path80" />
      <path
         d="m 547.5,1116.75 h 32.551"
         style="fill:none;stroke:#262626;stroke-width:5.0025;stroke-linecap:square;stroke-linejoin:round;stroke-miterlimit:10;stroke-dasharray:none;stroke-opacity:1"
         id="path82" />
      <path
         d="m 547.5,1374 h 32.551"
         style="fill:none;stroke:#262626;stroke-width:5.0025;stroke-linecap:square;stroke-linejoin:round;stroke-miterlimit:10;stroke-dasharray:none;stroke-opacity:1"
         id="path84" />
      <path
         d="m 547.5,1631.25 h 32.551"
         style="fill:none;stroke:#262626;stroke-width:5.0025;stroke-linecap:square;stroke-linejoin:round;stroke-miterlimit:10;stroke-dasharray:none;stroke-opacity:1"
         id="path86" />
      <path
         d="m 547.5,1888.5 h 32.551"
         style="fill:none;stroke:#262626;stroke-width:5.0025;stroke-linecap:square;stroke-linejoin:round;stroke-miterlimit:10;stroke-dasharray:none;stroke-opacity:1"
         id="path88" />
      <path
         d="m 547.5,2145.75 h 32.551"
         style="fill:none;stroke:#262626;stroke-width:5.0025;stroke-linecap:square;stroke-linejoin:round;stroke-miterlimit:10;stroke-dasharray:none;stroke-opacity:1"
         id="path90" />
      <path
         d="m 547.5,2403 h 32.551"
         style="fill:none;stroke:#262626;stroke-width:5.0025;stroke-linecap:square;stroke-linejoin:round;stroke-miterlimit:10;stroke-dasharray:none;stroke-opacity:1"
         id="path92" />
      <path
         d="m 547.5,2660.25 h 32.551"
         style="fill:none;stroke:#262626;stroke-width:5.0025;stroke-linecap:square;stroke-linejoin:round;stroke-miterlimit:10;stroke-dasharray:none;stroke-opacity:1"
         id="path94" />
      <path
         d="m 547.5,2917.5 h 32.551"
         style="fill:none;stroke:#262626;stroke-width:5.0025;stroke-linecap:square;stroke-linejoin:round;stroke-miterlimit:10;stroke-dasharray:none;stroke-opacity:1"
         id="path96" />
      <g
         id="g98"
         transform="scale(10)">
        <text
           xml:space="preserve"
           transform="matrix(1,0,0,-1,44,31.125)"
           style="font-variant:normal;font-weight:normal;font-size:9.99975px;font-family:Helvetica;-inkscape-font-specification:Helvetica;writing-mode:lr-tb;fill:#262626;fill-opacity:1;fill-rule:nonzero;stroke:none"
           id="text122"><tspan
             x="0"
             y="0"
             id="tspan100">0</tspan><tspan
             x="-9.75 -4.1901388 -1.4102085"
             y="-25.725"
             sodipodi:role="line"
             id="tspan102">0.1</tspan><tspan
             x="-9.75 -4.1901388 -1.4102085"
             y="-51.450001"
             sodipodi:role="line"
             id="tspan104">0.2</tspan><tspan
             x="-9.75 -4.1901388 -1.4102085"
             y="-77.175003"
             sodipodi:role="line"
             id="tspan106">0.3</tspan><tspan
             x="-9.75 -4.1901388 -1.4102085"
             y="-102.9"
             sodipodi:role="line"
             id="tspan108">0.4</tspan><tspan
             x="-9.75 -4.1901388 -1.4102085"
             y="-128.625"
             sodipodi:role="line"
             id="tspan110">0.5</tspan><tspan
             x="-9.75 -4.1901388 -1.4102085"
             y="-154.35001"
             sodipodi:role="line"
             id="tspan112">0.6</tspan><tspan
             x="-9.75 -4.1901388 -1.4102085"
             y="-180.075"
             sodipodi:role="line"
             id="tspan114">0.7</tspan><tspan
             x="-9.75 -4.1901388 -1.4102085"
             y="-205.8"
             sodipodi:role="line"
             id="tspan116">0.8</tspan><tspan
             x="-9.75 -4.1901388 -1.4102085"
             y="-231.52499"
             sodipodi:role="line"
             id="tspan118">0.9</tspan><tspan
             x="0"
             y="-257.25"
             id="tspan120">1</tspan></text>
        <text
           xml:space="preserve"
           transform="matrix(0,1,1,0,28.25,128.25)"
           style="font-variant:normal;font-weight:normal;font-size:11.0002px;font-family:Helvetica;-inkscape-font-specification:Helvetica;writing-mode:lr-tb;fill:#262626;fill-opacity:1;fill-rule:nonzero;stroke:none"
           id="text126"><tspan
             x="0 6.1161113 11.616211 17.732323 21.39539 27.511499 33.627613 39.743721 42.801777 49.5229 56.860035"
             y="0"
             sodipodi:role="line"
             id="tspan124">averege FER</tspan></text>
      </g>
      <path
         d="M 547.5,739.449 873,2574.5 1198.5,2917.5 1524,2197.2 1849.5,2746 2175,2917.5 2500.5,2746 2826,2574.5 3151.5,2746 3477,2917.5 3802.5,2746"
         style="fill:none;stroke:#0072bd;stroke-width:5.0025;stroke-linecap:butt;stroke-linejoin:round;stroke-miterlimit:10;stroke-dasharray:none;stroke-opacity:1"
         id="path128" />
      <path
         d="m 547.5,345 325.5,1029 325.5,-17.15 325.5,-171.5 325.5,-154.35 325.5,171.5 325.5,497.35 325.5,-154.35 325.5,291.55 325.5,-291.55 325.5,-343"
         style="fill:none;stroke:#d95319;stroke-width:5.0025;stroke-linecap:butt;stroke-linejoin:round;stroke-miterlimit:10;stroke-dasharray:none;stroke-opacity:1"
         id="path130" />
      <path
         d="m 547.5,345 h 1953 L 2826,602.25 3151.5,345 h 325.5 325.5"
         style="fill:none;stroke:#edb120;stroke-width:5.0025;stroke-linecap:butt;stroke-linejoin:round;stroke-miterlimit:10;stroke-dasharray:none;stroke-opacity:1"
         id="path132" />
      <path
         d="m 2880,2137.5 h 900 v 375 h -900 z"
         style="fill:#ffffff;fill-opacity:1;fill-rule:nonzero;stroke:none"
         id="path134" />
      <g
         id="g136"
         transform="scale(10)">
        <text
           xml:space="preserve"
           transform="matrix(1,0,0,-1,323.25,240.75)"
           style="font-variant:normal;font-weight:normal;font-size:9px;font-family:Helvetica;-inkscape-font-specification:Helvetica;writing-mode:lr-tb;fill:#000000;fill-opacity:1;fill-rule:nonzero;stroke:none"
           id="text140"><tspan
             x="0 6.0029998 11.007 13.509 20.007 25.011 27.513 32.769001 35.271"
             y="0"
             sodipodi:role="line"
             id="tspan138">Eb/No = 0</tspan></text>
      </g>
      <path
         d="m 2910,2441.25 h 300"
         style="fill:none;stroke:#0072bd;stroke-width:5.0025;stroke-linecap:butt;stroke-linejoin:round;stroke-miterlimit:10;stroke-dasharray:none;stroke-opacity:1"
         id="path142" />
      <g
         id="g144"
         transform="scale(10)">
        <text
           xml:space="preserve"
           transform="matrix(1,0,0,-1,323.25,229.125)"
           style="font-variant:normal;font-weight:normal;font-size:9px;font-family:Helvetica;-inkscape-font-specification:Helvetica;writing-mode:lr-tb;fill:#000000;fill-opacity:1;fill-rule:nonzero;stroke:none"
           id="text148"><tspan
             x="0 6.0029998 11.007 13.509 20.007 25.011 27.513 32.769001 35.271"
             y="0"
             sodipodi:role="line"
             id="tspan146">Eb/No = 5</tspan></text>
      </g>
      <path
         d="m 2910,2325 h 300"
         style="fill:none;stroke:#d95319;stroke-width:5.0025;stroke-linecap:butt;stroke-linejoin:round;stroke-miterlimit:10;stroke-dasharray:none;stroke-opacity:1"
         id="path150" />
      <g
         id="g152"
         transform="scale(10)">
        <text
           xml:space="preserve"
           transform="matrix(1,0,0,-1,323.25,217.5)"
           style="font-variant:normal;font-weight:normal;font-size:9px;font-family:Helvetica;-inkscape-font-specification:Helvetica;writing-mode:lr-tb;fill:#000000;fill-opacity:1;fill-rule:nonzero;stroke:none"
           id="text156"><tspan
             x="0 6.0029998 11.007 13.509 20.007 25.011 27.513 32.769001 35.271 40.275002"
             y="0"
             sodipodi:role="line"
             id="tspan154">Eb/No = 10</tspan></text>
      </g>
      <path
         d="m 2910,2208.75 h 300"
         style="fill:none;stroke:#edb120;stroke-width:5.0025;stroke-linecap:butt;stroke-linejoin:round;stroke-miterlimit:10;stroke-dasharray:none;stroke-opacity:1"
         id="path158" />
      <path
         d="m 2880,2137.5 h 900 v 375 h -900 z"
         style="fill:none;stroke:#262626;stroke-width:5.0025;stroke-linecap:butt;stroke-linejoin:miter;stroke-miterlimit:10;stroke-dasharray:none;stroke-opacity:1"
         id="path160" />
    </g>
  </g>
</svg>
